PathFileType	4	(X/Y/Z)	/Users/itak/Documents/Research/Walk-IL/dataset/trc/00419_00012.trc
DataRate	CameraRate	NumFrames	NumMarkers	Units	OrigDataRate	OrigDataStartFrame	OrigNumFrames
100.000000	100.000000	4	54	mm	100.000000	131	524
Frame#	Time	RPSI			LPSI			L3			STRN			T10			C7			CLAV			RBAK			LBAK			LSHO			LUPA			LAEL			LAOL			LWTS			LWPS			LFRA			LIFD			LHPS			LHTS			RSHO			RUPA			RAEL			RAOL			RWTS			RWPS			RFRA			RIFD			RHTS			RHPS			RBHD			LFHD			RFHD			LBHD			LHIP			RHIP			RASI			LASI			LKNE			LTHI			LANK			LTIP			LTOE			LMT1			LMT5			LHEE			RKNE			RTHI			RANK			RTIP			RTOE			RMT1			RMT5			RHEE			*53			
		X1	Y1	Z1	X2	Y2	Z2	X3	Y3	Z3	X4	Y4	Z4	X5	Y5	Z5	X6	Y6	Z6	X7	Y7	Z7	X8	Y8	Z8	X9	Y9	Z9	X10	Y10	Z10	X11	Y11	Z11	X12	Y12	Z12	X13	Y13	Z13	X14	Y14	Z14	X15	Y15	Z15	X16	Y16	Z16	X17	Y17	Z17	X18	Y18	Z18	X19	Y19	Z19	X20	Y20	Z20	X21	Y21	Z21	X22	Y22	Z22	X23	Y23	Z23	X24	Y24	Z24	X25	Y25	Z25	X26	Y26	Z26	X27	Y27	Z27	X28	Y28	Z28	X29	Y29	Z29	X30	Y30	Z30	X31	Y31	Z31	X32	Y32	Z32	X33	Y33	Z33	X34	Y34	Z34	X35	Y35	Z35	X36	Y36	Z36	X37	Y37	Z37	X38	Y38	Z38	X39	Y39	Z39	X40	Y40	Z40	X41	Y41	Z41	X42	Y42	Z42	X43	Y43	Z43	X44	Y44	Z44	X45	Y45	Z45	X46	Y46	Z46	X47	Y47	Z47	X48	Y48	Z48	X49	Y49	Z49	X50	Y50	Z50	X51	Y51	Z51	X52	Y52	Z52	X53	Y53	Z53	X54	Y54	Z54	

132	1.31	-1538.080200195312	991.7609252929688	-493.8761596679688	-1550.949462890625	983.248046875	-624.52001953125	-1544.49609375	1056.409301757812	-556.229248046875	-1312.279174804688	1213.5283203125	-568.1495361328125	-1556.333984375	1160.22265625	-560.1255493164062	-1524.000610351562	1409.353637695312	-575.2903442382812	-1367.036499023438	1331.260009765625	-568.4408569335938	-1560.9931640625	1263.238159179688	-503.6790466308594	-1536.710815429688	1369.893920898438	-680.2223510742188	-1448.564819335938	1385.05810546875	-728.5289306640625	-1457.212646484375	1267.545776367188	-799.8510131835938	-1416.216674804688	1068.963500976562	-812.8591918945312	-1482.912475585938	1048.186645507812	-764.3178100585938	-1325.456298828125	861.4056396484375	-726.8367309570312	-1350.84423828125	839.021728515625	-800.7781372070312	-1387.80126953125	965.470947265625	-812.0279541015625	-1315.939086914062	682.8675537109375	-709.4761352539062	-1336.465576171875	755.9599609375	-779.6160278320312	-1298.669311523438	764.9032592773438	-728.8547973632812	-1457.860107421875	1388.819946289062	-415.5357055664062	-1460.704833984375	1323.127807617188	-355.0574645996094	-1424.2763671875	1059.801635742188	-317.2420349121094	-1467.978515625	1053.063598632812	-399.2608032226562	-1311.922729492188	847.617919921875	-407.2835693359375	-1324.028076171875	832.8615112304688	-336.1258239746094	-1393.1279296875	994.901123046875	-314.3126831054688	-1310.459594726562	671.78955078125	-410.9217834472656	-1287.478149414062	741.5614624023438	-403.3330383300781	-1319.557250976562	743.5768432617188	-343.0146179199219	-1485.2373046875	1605.218872070312	-500.8745727539062	-1325.614624023438	1595.79541015625	-619.334228515625	-1352.322875976562	1605.788330078125	-499.9284973144531	-1468.077758789062	1591.452514648438	-661.625244140625	-1470.770141601562	968.760986328125	-742.3875732421875	-1448.383911132812	967.0806884765625	-384.2907104492188	-1319.405395507812	972.6459350585938	-447.0366821289062	-1355.449096679688	965.109130859375	-708.6206665039062	-1440.682861328125	475.4740295410156	-720.3919067382812	-1443.77685546875	617.6840209960938	-733.317626953125	-1536.167602539062	43.98900604248047	-662.6537475585938	-1489.85498046875	244.8538818359375	-703.8745727539062	-1315.602294921875	44.88397979736328	-610.6491088867188	-1395.7021484375	46.28722763061523	-575.750244140625	-1409.467651367188	41.3912353515625	-680.492431640625	-1569.231201171875	42.12685012817383	-603.1773681640625	-1431.201416015625	477.7140502929688	-397.0558166503906	-1386.620483398438	739.9632568359375	-365.8456115722656	-1498.391967773438	60.08264541625977	-415.8753662109375	-1427.522827148438	350.8316650390625	-409.3912658691406	-1320.915649414062	41.76497268676758	-482.5306701660156	-1397.67919921875	44.26029968261719	-510.5838623046875	-1414.203369140625	48.44788360595703	-412.1944885253906	-1572.39501953125	46.55298233032227	-465.8815307617188	nan	nan	nan	
133	1.32	-1538.15771484375	991.7468872070312	-493.4098510742188	-1551.156005859375	983.25927734375	-624.0740966796875	-1544.654907226562	1056.398071289062	-555.7921142578125	-1312.583862304688	1213.495971679688	-567.804443359375	-1556.465454101562	1160.234008789062	-559.6484985351562	-1524.116821289062	1409.356201171875	-574.8651733398438	-1367.199584960938	1331.208862304688	-568.0845336914062	-1561.0625	1263.259033203125	-503.2231140136719	-1536.892333984375	1369.874877929688	-679.8008422851562	-1448.752075195312	1385.037231445312	-728.1442260742188	-1457.454833984375	1267.508911132812	-799.4301147460938	-1416.477905273438	1068.916259765625	-812.4229736328125	-1483.125732421875	1048.1591796875	-763.801513671875	-1325.767578125	861.4189453125	-726.4768676757812	-1351.175659179688	838.96630859375	-800.3477783203125	-1388.136840820312	965.4218139648438	-811.6083984375	-1316.220947265625	682.8411865234375	-709.0307006835938	-1336.73388671875	755.9019165039062	-779.1449584960938	-1298.791870117188	764.880615234375	-728.4194946289062	-1457.920654296875	1388.81494140625	-415.1223754882812	-1460.772216796875	1323.130126953125	-354.6565246582031	-1424.455810546875	1059.765869140625	-316.8789367675781	-1468.049194335938	1053.03515625	-398.7778015136719	-1312.116333007812	847.569091796875	-407.0086975097656	-1324.204711914062	832.8103637695312	-335.8922424316406	-1393.246337890625	994.8644409179688	-313.9781494140625	-1310.742431640625	671.7279052734375	-410.7502136230469	-1287.707397460938	741.5332641601562	-403.2191772460938	-1319.760620117188	743.5181884765625	-342.7293701171875	-1485.239013671875	1605.188598632812	-500.4022216796875	-1325.729858398438	1595.829711914062	-619.0059204101562	-1352.36181640625	1605.816650390625	-499.5988159179688	-1468.270874023438	1591.450317382812	-661.1935424804688	-1470.9892578125	968.7975463867188	-741.953125	-1448.536010742188	967.063720703125	-383.87841796875	-1319.477661132812	972.6097412109375	-446.6024169921875	-1355.64404296875	965.1076049804688	-708.1996459960938	-1440.866943359375	475.5316162109375	-720.15087890625	-1443.866821289062	617.7149658203125	-732.98681640625	-1536.163818359375	43.97516632080078	-662.6195068359375	-1489.927001953125	244.877685546875	-703.744140625	-1315.609741210938	44.89800262451172	-610.6458129882812	-1395.704833984375	46.28329086303711	-575.7481689453125	-1409.473266601562	41.41258239746094	-680.4826049804688	-1569.191772460938	42.0345344543457	-603.12939453125	-1431.34619140625	477.6834716796875	-396.720947265625	-1386.7373046875	739.92333984375	-365.5184020996094	-1498.389892578125	59.97604751586914	-415.8086547851562	-1427.702514648438	350.7749633789062	-409.1226501464844	-1320.927490234375	41.76915740966797	-482.5224914550781	-1397.711791992188	44.28599166870117	-510.5595397949219	-1414.434936523438	48.37779998779297	-412.2280883789062	-1572.526245117188	46.58150863647461	-465.7681579589844	nan	nan	nan	
134	1.33	-1538.230590820312	991.741455078125	-492.9385375976562	-1551.356689453125	983.2821044921875	-623.6239013671875	-1544.78466796875	1056.389770507812	-555.3427734375	-1312.878540039062	1213.454833984375	-567.4520874023438	-1556.558349609375	1160.239868164062	-559.1588134765625	-1524.221557617188	1409.356811523438	-574.4332885742188	-1367.396362304688	1331.17041015625	-567.745849609375	-1561.135131835938	1263.2763671875	-502.7655029296875	-1537.06982421875	1369.853149414062	-679.3718872070312	-1448.94970703125	1385.014892578125	-727.7617797851562	-1457.690795898438	1267.467895507812	-799.0064697265625	-1416.74853515625	1068.867431640625	-811.98779296875	-1483.329956054688	1048.13134765625	-763.2785034179688	-1326.075317382812	861.435302734375	-726.1199951171875	-1351.513061523438	838.9131469726562	-799.9180297851562	-1388.49365234375	965.376220703125	-811.1892700195312	-1316.380615234375	682.8212890625	-708.5477294921875	-1336.987060546875	755.83447265625	-778.6721801757812	-1298.936767578125	764.8456420898438	-727.9942016601562	-1457.966918945312	1388.808837890625	-414.7122192382812	-1460.818603515625	1323.130004882812	-354.2538452148438	-1424.594360351562	1059.733154296875	-316.5375061035156	-1468.147338867188	1053.050903320312	-398.3128967285156	-1312.30517578125	847.515380859375	-406.7430419921875	-1324.340087890625	832.7553100585938	-335.6578674316406	-1393.313110351562	994.8280639648438	-313.6524963378906	-1310.979736328125	671.6805419921875	-410.5896911621094	-1287.93896484375	741.4818115234375	-403.1156311035156	-1319.94677734375	743.4677734375	-342.4715576171875	-1485.261352539062	1605.159790039062	-499.9369201660156	-1325.86279296875	1595.857666015625	-618.6585693359375	-1352.399169921875	1605.827392578125	-499.2493286132812	-1468.469360351562	1591.449951171875	-660.7578125	-1471.203857421875	968.838623046875	-741.5155029296875	-1448.646728515625	967.04638671875	-383.4569702148438	-1319.548950195312	972.5816040039062	-446.1772155761719	-1355.746459960938	965.1281127929688	-707.7698974609375	-1441.105712890625	475.5964660644531	-719.9197387695312	-1443.984985351562	617.7478637695312	-732.6683959960938	-1536.163818359375	43.96101760864258	-662.5881958007812	-1490.026733398438	244.9078216552734	-703.6241455078125	-1315.618896484375	44.91633224487305	-610.6430053710938	-1395.707885742188	46.28738021850586	-575.7496337890625	-1409.47900390625	41.43060302734375	-680.4749755859375	-1569.14208984375	41.93423080444336	-603.0806274414062	-1431.454956054688	477.6651611328125	-396.3843078613281	-1386.826538085938	739.8899536132812	-365.2301330566406	-1498.38818359375	59.86483383178711	-415.7349548339844	-1427.887817382812	350.717529296875	-408.8569641113281	-1320.940551757812	41.77244186401367	-482.5130920410156	-1397.742553710938	44.30825805664062	-510.5325012207031	-1414.620361328125	48.31987762451172	-412.2503356933594	-1572.693115234375	46.62782669067383	-465.6390380859375	nan	nan	nan	
135	1.34	-1538.294555664062	991.744140625	-492.4625549316406	-1551.548828125	983.3165283203125	-623.1683349609375	-1544.884155273438	1056.385864257812	-554.88037109375	-1313.134643554688	1213.413208007812	-567.0916748046875	-1556.619506835938	1160.242309570312	-558.6599731445312	-1524.313842773438	1409.356323242188	-573.9945068359375	-1367.62841796875	1331.147705078125	-567.4190673828125	-1561.2109375	1263.290161132812	-502.3056640625	-1537.2421875	1369.83056640625	-678.9343872070312	-1449.154418945312	1384.993041992188	-727.3790893554688	-1457.919799804688	1267.426391601562	-798.5819091796875	-1417.02587890625	1068.820678710938	-811.5548095703125	-1483.532470703125	1048.106079101562	-762.7557373046875	-1326.384765625	861.4428100585938	-725.7642211914062	-1351.854125976562	838.8648071289062	-799.48974609375	-1388.856079101562	965.3358154296875	-810.7709350585938	-1316.42578125	682.8118896484375	-708.0358276367188	-1337.239868164062	755.7637329101562	-778.2041625976562	-1299.115478515625	764.7992553710938	-727.591796875	-1458.0009765625	1388.802124023438	-414.3050842285156	-1460.838745117188	1323.129150390625	-353.8480529785156	-1424.68017578125	1059.706298828125	-316.2111206054688	-1468.26220703125	1053.105346679688	-397.8790893554688	-1312.475830078125	847.46142578125	-406.4942932128906	-1324.429077148438	832.698974609375	-335.4201354980469	-1393.331420898438	994.7951049804688	-313.3307800292969	-1311.166015625	671.6519775390625	-410.4297485351562	-1288.165283203125	741.4029541015625	-403.0007019042969	-1320.101440429688	743.4306640625	-342.2474975585938	-1485.3115234375	1605.137451171875	-499.4832153320312	-1326.01220703125	1595.877807617188	-618.292724609375	-1352.438110351562	1605.81640625	-498.8829650878906	-1468.674682617188	1591.452270507812	-660.3255615234375	-1471.413696289062	968.8850708007812	-741.0753784179688	-1448.702514648438	967.0277099609375	-383.0238647460938	-1319.623657226562	972.564697265625	-445.7685852050781	-1355.775024414062	965.1681518554688	-707.3301391601562	-1441.393798828125	475.6672058105469	-719.6962890625	-1444.147583007812	617.7875366210938	-732.3624877929688	-1536.164794921875	43.94318389892578	-662.5584106445312	-1490.1533203125	244.9449768066406	-703.516357421875	-1315.630737304688	44.93989562988281	-610.6412353515625	-1395.709594726562	46.29877090454102	-575.7529907226562	-1409.482666015625	41.44566345214844	-680.4659423828125	-1569.097290039062	41.84236526489258	-603.037353515625	-1431.538330078125	477.6583557128906	-396.0487060546875	-1386.881103515625	739.8739624023438	-364.994873046875	-1498.391723632812	59.7550048828125	-415.6571960449219	-1428.074829101562	350.6647338867188	-408.5939331054688	-1320.954956054688	41.77616882324219	-482.5032653808594	-1397.769653320312	44.328857421875	-510.5039978027344	-1414.730834960938	48.28231430053711	-412.24853515625	-1572.867431640625	46.67432403564453	-465.5123291015625	nan	nan	nan	
